<?xml version="1.0" encoding="UTF-8"?><svg id="Layer_2" xmlns="http://www.w3.org/2000/svg" viewBox="0 0 830 1160.39"><defs><style>.cls-1{fill:#fff;}.cls-1,.cls-2{stroke:#000;}.cls-1,.cls-2,.cls-3,.cls-4{stroke-miterlimit:10;}.cls-2,.cls-3,.cls-4{fill:none;}.cls-3{stroke:#ff2600;}.cls-4{stroke:#6300ff;}.cls-5{fill:#6300ff;}.cls-5,.cls-6{stroke-width:0px;}.cls-6{fill:#ff2600;}</style></defs><line class="cls-1" x1="617.32" y1="596.47" x2="226.11" y2="595.5"/><polygon class="cls-1" points="499.48 735.98 617.32 596.47 226.11 595.5 344.77 735.98 499.48 735.98"/><rect class="cls-1" x="109.08" y="189.63" width="624.36" height="5.62" transform="translate(842.51 384.88) rotate(180)"/><rect class="cls-1" x="109.08" y="52.11" width="624.36" height="5.62" transform="translate(842.51 109.84) rotate(180)"/><rect class="cls-1" x="109.08" y="334.46" width="624.36" height="5.62" transform="translate(842.51 674.54) rotate(180)"/><rect class="cls-1" x="173.98" y="330.6" width="494.56" height="1.84" transform="translate(842.51 663.04) rotate(180)"/><rect class="cls-1" x="173.98" y="460.3" width="494.56" height="1.84" transform="translate(842.51 922.43) rotate(180)"/><rect class="cls-1" x="173.98" y="1079.95" width="494.56" height="1.84" transform="translate(842.51 2161.74) rotate(180)"/><rect class="cls-1" x="252.76" y="596.47" width="331.24" height="1.84" transform="translate(836.77 1194.79) rotate(180)"/><rect class="cls-1" x="252.76" y="599.37" width="331.24" height="1.84" transform="translate(836.77 1200.58) rotate(180)"/><rect class="cls-1" x="109.08" y="463.81" width="624.36" height="5.62" transform="translate(842.51 933.23) rotate(180)"/><rect class="cls-1" x="109.08" y="763.93" width="624.36" height="5.62" transform="translate(842.51 1533.49) rotate(180)"/><polygon class="cls-1" points="212.19 589.8 633.02 589.8 626.95 595.42 210.39 595.42 212.19 589.8"/><rect class="cls-1" x="109.08" y="1083.73" width="624.36" height="26.34" transform="translate(842.51 2193.81) rotate(180)"/><path class="cls-1" d="m438.74,201.15c0,3.23-7.83,5.84-17.48,5.84s-17.48-2.62-17.48-5.84h34.96Z"/><rect class="cls-1" x="356.06" y="195.07" width="130.39" height="6" transform="translate(842.51 396.14) rotate(180)"/><polygon class="cls-1" points="356.06 189.23 486.45 189.23 486.45 183.23 481.92 183.23 481.92 68.11 476.96 68.11 476.96 183.23 471.14 183.23 471.14 68.11 466.18 68.11 466.18 183.23 460.36 183.23 460.36 68.11 455.4 68.11 455.4 183.23 449.58 183.23 449.58 68.11 444.62 68.11 444.62 183.23 438.8 183.23 438.8 68.11 433.84 68.11 433.84 183.23 428.02 183.23 428.02 68.11 423.06 68.11 423.06 183.23 417.24 183.23 417.24 68.11 412.28 68.11 412.28 183.23 406.46 183.23 406.46 68.11 401.5 68.11 401.5 183.23 395.69 183.23 395.69 68.11 390.72 68.11 390.72 183.23 384.91 183.23 384.91 68.11 379.94 68.11 379.94 183.23 374.13 183.23 374.13 68.11 369.17 68.11 369.17 183.23 363.35 183.23 363.35 68.11 358.39 68.11 358.39 183.23 356.06 183.23 356.06 189.23"/><rect class="cls-1" x="106.87" y="57.26" width="38.28" height="406.55" transform="translate(252.02 521.06) rotate(180)"/><rect class="cls-1" x="65.32" y="55.7" width="38.28" height="721.9" transform="translate(168.93 833.3) rotate(180)"/><rect class="cls-1" x="697.36" y="59.31" width="38.28" height="402.83" transform="translate(1433 521.44) rotate(180)"/><g id="enlarger_lens"><path class="cls-1" d="m498.58,820.24v-10.85h-7.22c0-4.64-6.99-8.87-18.42-12.03h9.34v-31.18h-120.25v31.18h9.34c-11.43,3.16-18.42,7.38-18.42,12.03h-8.83v10.85h154.46Z"/><rect class="cls-1" x="376.58" y="753.19" width="89.98" height="11.06"/></g><rect class="cls-2" x="313.89" y="735.98" width="217.1" height="27.96"/><line class="cls-4" x1="421.35" y1="305.09" x2="421.35" y2="211.64"/><polygon class="cls-5" points="424.53 299.18 423.59 298.84 421.35 304.99 419.11 298.84 418.17 299.18 421.35 307.91 424.53 299.18"/><line class="cls-4" x1="421.35" y1="305.09" x2="421.35" y2="211.64"/><polygon class="cls-5" points="424.53 299.18 423.59 298.84 421.35 304.99 419.11 298.84 418.17 299.18 421.35 307.91 424.53 299.18"/><line class="cls-4" x1="447.55" y1="303.65" x2="422.61" y2="211.57"/><polygon class="cls-5" points="449.08 297.12 448.08 297.03 447.53 303.56 443.76 298.2 442.94 298.78 448.29 306.38 449.08 297.12"/><line class="cls-4" x1="447.55" y1="303.65" x2="422.61" y2="211.57"/><polygon class="cls-5" points="449.08 297.12 448.08 297.03 447.53 303.56 443.76 298.2 442.94 298.78 448.29 306.38 449.08 297.12"/><line class="cls-4" x1="473.03" y1="299.36" x2="423.82" y2="211.36"/><polygon class="cls-5" points="472.92 292.65 471.94 292.81 472.98 299.27 468.03 295 467.37 295.75 474.41 301.83 472.92 292.65"/><line class="cls-4" x1="473.03" y1="299.36" x2="423.82" y2="211.36"/><polygon class="cls-5" points="472.92 292.65 471.94 292.81 472.98 299.27 468.03 295 467.37 295.75 474.41 301.83 472.92 292.65"/><line class="cls-4" x1="497.04" y1="292.27" x2="424.96" y2="211.01"/><polygon class="cls-5" points="495.5 285.74 494.57 286.11 496.98 292.2 491.22 289.08 490.74 289.96 498.92 294.39 495.5 285.74"/><line class="cls-4" x1="497.04" y1="292.27" x2="424.96" y2="211.01"/><polygon class="cls-5" points="495.5 285.74 494.57 286.11 496.98 292.2 491.22 289.08 490.74 289.96 498.92 294.39 495.5 285.74"/><line class="cls-4" x1="518.84" y1="282.56" x2="425.99" y2="210.54"/><polygon class="cls-5" points="516.12 276.43 515.27 276.96 518.76 282.5 512.52 280.5 512.22 281.45 521.07 284.29 516.12 276.43"/><line class="cls-4" x1="518.84" y1="282.56" x2="425.99" y2="210.54"/><polygon class="cls-5" points="516.12 276.43 515.27 276.96 518.76 282.5 512.52 280.5 512.22 281.45 521.07 284.29 516.12 276.43"/><line class="cls-4" x1="537.71" y1="270.49" x2="426.88" y2="209.97"/><polygon class="cls-5" points="534.05 264.87 533.3 265.53 537.63 270.45 531.15 269.46 531 270.45 540.19 271.85 534.05 264.87"/><line class="cls-4" x1="537.71" y1="270.49" x2="426.88" y2="209.97"/><polygon class="cls-5" points="534.05 264.87 533.3 265.53 537.63 270.45 531.15 269.46 531 270.45 540.19 271.85 534.05 264.87"/><line class="cls-4" x1="415.83" y1="209.97" x2="305" y2="270.49"/><polygon class="cls-5" points="308.66 264.87 309.41 265.53 305.08 270.45 311.56 269.46 311.71 270.45 302.52 271.85 308.66 264.87"/><line class="cls-4" x1="415.83" y1="209.97" x2="305" y2="270.49"/><polygon class="cls-5" points="308.66 264.87 309.41 265.53 305.08 270.45 311.56 269.46 311.71 270.45 302.52 271.85 308.66 264.87"/><line class="cls-4" x1="416.72" y1="210.54" x2="323.87" y2="282.56"/><polygon class="cls-5" points="326.59 276.43 327.44 276.96 323.95 282.5 330.18 280.5 330.49 281.45 321.64 284.29 326.59 276.43"/><line class="cls-4" x1="415.87" y1="213.13" x2="345.66" y2="292.27"/><polygon class="cls-5" points="409.57 215.44 410.05 216.32 415.81 213.2 413.4 219.29 414.33 219.66 417.75 211.01 409.57 215.44"/><polygon class="cls-5" points="347.21 285.74 348.14 286.11 345.73 292.2 351.49 289.08 351.96 289.96 343.79 294.39 347.21 285.74"/><line class="cls-4" x1="417.75" y1="211.01" x2="345.66" y2="292.27"/><polygon class="cls-5" points="347.21 285.74 348.14 286.11 345.73 292.2 351.49 289.08 351.96 289.96 343.79 294.39 347.21 285.74"/><line class="cls-4" x1="417.51" y1="213.82" x2="369.67" y2="299.36"/><polygon class="cls-5" points="411.85 217.43 412.5 218.19 417.46 213.91 416.41 220.38 417.4 220.54 418.89 211.36 411.85 217.43"/><polygon class="cls-5" points="369.78 292.65 370.77 292.81 369.72 299.27 374.68 295 375.34 295.75 368.3 301.83 369.78 292.65"/><line class="cls-4" x1="417.51" y1="213.82" x2="369.67" y2="299.36"/><polygon class="cls-5" points="411.85 217.43 412.5 218.19 417.46 213.91 416.41 220.38 417.4 220.54 418.89 211.36 411.85 217.43"/><polygon class="cls-5" points="369.78 292.65 370.77 292.81 369.72 299.27 374.68 295 375.34 295.75 368.3 301.83 369.78 292.65"/><line class="cls-4" x1="419.36" y1="214.3" x2="395.15" y2="303.65"/><polygon class="cls-5" points="414.75 219.17 415.57 219.75 419.34 214.39 419.89 220.92 420.89 220.83 420.1 211.57 414.75 219.17"/><polygon class="cls-5" points="393.63 297.12 394.63 297.03 395.18 303.56 398.95 298.2 399.77 298.78 394.42 306.38 393.63 297.12"/><line class="cls-4" x1="420.1" y1="211.57" x2="395.15" y2="303.65"/><polygon class="cls-5" points="393.63 297.12 394.63 297.03 395.18 303.56 398.95 298.2 399.77 298.78 394.42 306.38 393.63 297.12"/><line class="cls-4" x1="658.23" y1="446.9" x2="658.23" y2="352.2"/><polygon class="cls-5" points="661.42 440.99 660.47 440.65 658.23 446.8 655.99 440.65 655.06 440.99 658.23 449.73 661.42 440.99"/><line class="cls-4" x1="614.64" y1="446.9" x2="614.64" y2="352.2"/><polygon class="cls-5" points="617.82 440.99 616.88 440.65 614.64 446.8 612.4 440.65 611.46 440.99 614.64 449.73 617.82 440.99"/><line class="cls-4" x1="571.05" y1="446.9" x2="571.05" y2="352.2"/><polygon class="cls-5" points="574.23 440.99 573.29 440.65 571.05 446.8 568.81 440.65 567.87 440.99 571.05 449.73 574.23 440.99"/><line class="cls-4" x1="527.46" y1="446.9" x2="527.46" y2="352.2"/><polygon class="cls-5" points="530.64 440.99 529.7 440.65 527.46 446.8 525.22 440.65 524.28 440.99 527.46 449.73 530.64 440.99"/><line class="cls-4" x1="483.87" y1="446.9" x2="483.87" y2="352.2"/><polygon class="cls-5" points="487.05 440.99 486.11 440.65 483.87 446.8 481.63 440.65 480.69 440.99 483.87 449.73 487.05 440.99"/><line class="cls-4" x1="440.28" y1="446.9" x2="440.28" y2="352.2"/><polygon class="cls-5" points="443.46 440.99 442.52 440.65 440.28 446.8 438.04 440.65 437.1 440.99 440.28 449.73 443.46 440.99"/><line class="cls-4" x1="396.68" y1="446.9" x2="396.68" y2="352.2"/><polygon class="cls-5" points="399.87 440.99 398.93 440.65 396.68 446.8 394.44 440.65 393.51 440.99 396.68 449.73 399.87 440.99"/><line class="cls-4" x1="353.09" y1="446.9" x2="353.09" y2="352.2"/><polygon class="cls-5" points="356.27 440.99 355.33 440.65 353.09 446.8 350.85 440.65 349.91 440.99 353.09 449.73 356.27 440.99"/><line class="cls-4" x1="309.5" y1="446.9" x2="309.5" y2="352.2"/><polygon class="cls-5" points="312.68 440.99 311.74 440.65 309.5 446.8 307.26 440.65 306.32 440.99 309.5 449.73 312.68 440.99"/><line class="cls-4" x1="265.91" y1="446.9" x2="265.91" y2="352.2"/><polygon class="cls-5" points="269.09 440.99 268.15 440.65 265.91 446.8 263.67 440.65 262.73 440.99 265.91 449.73 269.09 440.99"/><line class="cls-4" x1="222.32" y1="446.9" x2="222.32" y2="352.2"/><polygon class="cls-5" points="225.5 440.99 224.56 440.65 222.32 446.8 220.08 440.65 219.14 440.99 222.32 449.73 225.5 440.99"/><line class="cls-4" x1="178.73" y1="446.9" x2="178.73" y2="352.2"/><polygon class="cls-5" points="181.91 440.99 180.97 440.65 178.73 446.8 176.49 440.65 175.55 440.99 178.73 449.73 181.91 440.99"/><line class="cls-4" x1="480.23" y1="709.7" x2="658.23" y2="481.3"/><line class="cls-4" x1="469.97" y1="709.7" x2="615.61" y2="481.3"/><line class="cls-4" x1="459.71" y1="709.7" x2="572.99" y2="481.3"/><line class="cls-4" x1="449.45" y1="709.7" x2="530.36" y2="481.3"/><line class="cls-4" x1="439.19" y1="709.7" x2="487.74" y2="481.3"/><line class="cls-4" x1="428.93" y1="709.7" x2="445.11" y2="481.3"/><line class="cls-4" x1="418.67" y1="709.7" x2="402.49" y2="481.3"/><line class="cls-4" x1="408.41" y1="709.7" x2="359.86" y2="481.3"/><line class="cls-4" x1="398.15" y1="709.7" x2="317.24" y2="481.3"/><line class="cls-4" x1="387.89" y1="709.7" x2="274.61" y2="481.3"/><line class="cls-4" x1="377.63" y1="709.7" x2="231.99" y2="481.3"/><line class="cls-4" x1="367.37" y1="709.7" x2="189.36" y2="481.3"/><line class="cls-4" x1="367.37" y1="835.29" x2="191.1" y2="1061.46"/><polygon class="cls-5" points="192.23 1054.84 193.18 1055.15 191.16 1061.38 196.71 1057.9 197.24 1058.75 189.36 1063.69 192.23 1054.84"/><line class="cls-4" x1="377.63" y1="835.29" x2="233.51" y2="1061.31"/><polygon class="cls-5" points="234 1054.61 234.98 1054.83 233.56 1061.22 238.76 1057.24 239.37 1058.03 231.99 1063.69 234 1054.61"/><line class="cls-4" x1="387.89" y1="835.29" x2="275.87" y2="1061.16"/><polygon class="cls-5" points="275.64 1054.45 276.64 1054.56 275.91 1061.07 280.65 1056.55 281.34 1057.27 274.61 1063.69 275.64 1054.45"/><line class="cls-4" x1="398.15" y1="835.29" x2="318.18" y2="1061.02"/><polygon class="cls-5" points="317.16 1054.39 318.16 1054.38 318.21 1060.93 322.38 1055.88 323.15 1056.51 317.24 1063.69 317.16 1054.39"/><line class="cls-4" x1="408.41" y1="835.29" x2="360.45" y2="1060.92"/><polygon class="cls-5" points="358.57 1054.48 359.56 1054.34 360.47 1060.83 363.94 1055.27 364.79 1055.8 359.86 1063.69 358.57 1054.48"/><line class="cls-4" x1="418.67" y1="835.29" x2="402.69" y2="1060.87"/><polygon class="cls-5" points="399.93 1054.75 400.89 1054.47 402.69 1060.77 405.36 1054.79 406.28 1055.2 402.49 1063.69 399.93 1054.75"/><line class="cls-4" x1="428.93" y1="835.29" x2="444.91" y2="1060.87"/><polygon class="cls-5" points="441.32 1055.2 442.23 1054.79 444.9 1060.77 446.7 1054.47 447.67 1054.75 445.11 1063.69 441.32 1055.2"/><line class="cls-4" x1="439.19" y1="835.29" x2="487.15" y2="1060.92"/><polygon class="cls-5" points="482.81 1055.8 483.66 1055.27 487.13 1060.83 488.04 1054.34 489.03 1054.48 487.74 1063.69 482.81 1055.8"/><line class="cls-4" x1="449.45" y1="835.29" x2="529.42" y2="1061.02"/><polygon class="cls-5" points="524.44 1056.51 525.22 1055.88 529.38 1060.93 529.44 1054.38 530.44 1054.39 530.36 1063.69 524.44 1056.51"/><line class="cls-4" x1="459.71" y1="835.29" x2="571.73" y2="1061.16"/><polygon class="cls-5" points="566.25 1057.27 566.94 1056.55 571.69 1061.07 570.96 1054.56 571.95 1054.45 572.99 1063.69 566.25 1057.27"/><line class="cls-4" x1="469.97" y1="835.29" x2="614.09" y2="1061.31"/><polygon class="cls-5" points="608.23 1058.03 608.84 1057.24 614.04 1061.22 612.62 1054.83 613.59 1054.61 615.61 1063.69 608.23 1058.03"/><line class="cls-4" x1="480.23" y1="835.29" x2="656.5" y2="1061.46"/><polygon class="cls-5" points="650.36 1058.75 650.89 1057.9 656.44 1061.38 654.42 1055.15 655.37 1054.84 658.23 1063.69 650.36 1058.75"/><polygon class="cls-5" points="487.74 705.77 486.77 705.1 480.01 709.21 481.12 703.23 479.72 703.12 478.14 711.61 487.74 705.77"/><polygon class="cls-5" points="476.79 705.53 475.78 704.93 469.74 709.21 470.14 703.4 468.77 703.36 468.21 711.61 476.79 705.53"/><polygon class="cls-5" points="465.84 705.29 464.8 704.76 459.47 709.21 459.15 703.57 457.83 703.6 458.28 711.61 465.84 705.29"/><polygon class="cls-5" points="454.9 705.05 453.81 704.59 449.2 709.21 448.16 703.74 446.88 703.84 448.35 711.61 454.9 705.05"/><polygon class="cls-5" points="443.95 704.81 442.82 704.42 438.93 709.21 437.18 703.91 435.94 704.09 438.42 711.61 443.95 704.81"/><polygon class="cls-5" points="433 704.57 431.84 704.25 428.66 709.21 426.19 704.08 424.99 704.33 428.49 711.61 433 704.57"/><polygon class="cls-5" points="422.06 704.33 420.85 704.08 418.39 709.21 415.21 704.25 414.04 704.57 418.56 711.61 422.06 704.33"/><polygon class="cls-5" points="411.11 704.09 409.87 703.91 408.12 709.21 404.22 704.42 403.1 704.81 408.63 711.61 411.11 704.09"/><polygon class="cls-5" points="400.16 703.84 398.88 703.74 397.85 709.21 393.23 704.59 392.15 705.05 398.7 711.61 400.16 703.84"/><polygon class="cls-5" points="389.22 703.6 387.89 703.57 387.57 709.21 382.25 704.76 381.2 705.29 388.76 711.61 389.22 703.6"/><polygon class="cls-5" points="378.27 703.36 376.91 703.4 377.3 709.21 371.26 704.93 370.26 705.53 378.83 711.61 378.27 703.36"/><polygon class="cls-5" points="367.33 703.12 365.92 703.23 367.03 709.21 360.28 705.1 359.31 705.77 368.9 711.61 367.33 703.12"/><path class="cls-3" d="m52.95,151.36c4.98,4.03,5.85,19.02,12.33,19.02,7.49,0,7.49-20,14.98-20s7.49,20,14.98,20,7.49-20,14.98-20,7.49,20,14.98,20,7.49-20,14.98-20,7.49,20,14.98,20,7.49-20,14.98-20,7.49,20,14.98,20,7.49-20,14.99-20,7.49,20,14.98,20,7.49-20,14.98-20,7.49,20,14.98,20,7.49-20,14.99-20,7.49,20,14.98,20,7.49-20,14.99-20,7.49,20,14.99,20,7.5-20,14.99-20,7.5,20,14.99,20"/><polygon class="cls-6" points="54.7 158.57 55.58 158.1 52.48 152.33 58.57 154.76 58.94 153.83 50.3 150.38 54.7 158.57"/><path class="cls-3" d="m52.95,119.67c4.98,4.03,5.85,19.02,12.33,19.02,7.49,0,7.49-20,14.98-20s7.49,20,14.98,20,7.49-20,14.98-20,7.49,20,14.98,20,7.49-20,14.98-20,7.49,20,14.98,20,7.49-20,14.98-20,7.49,20,14.98,20,7.49-20,14.99-20,7.49,20,14.98,20,7.49-20,14.98-20,7.49,20,14.98,20,7.49-20,14.99-20,7.49,20,14.98,20,7.49-20,14.99-20,7.49,20,14.99,20,7.5-20,14.99-20,7.5,20,14.99,20"/><polygon class="cls-6" points="54.7 126.88 55.58 126.4 52.48 120.63 58.57 123.06 58.94 122.13 50.3 118.69 54.7 126.88"/><path class="cls-3" d="m52.95,87.98c4.98,4.03,5.85,19.02,12.33,19.02,7.49,0,7.49-20,14.98-20s7.49,20,14.98,20,7.49-20,14.98-20,7.49,20,14.98,20,7.49-20,14.98-20,7.49,20,14.98,20,7.49-20,14.98-20,7.49,20,14.98,20,7.49-20,14.99-20,7.49,20,14.98,20,7.49-20,14.98-20,7.49,20,14.98,20,7.49-20,14.99-20,7.49,20,14.98,20,7.49-20,14.99-20,7.49,20,14.99,20,7.5-20,14.99-20,7.5,20,14.99,20"/><polygon class="cls-6" points="54.7 95.19 55.58 94.71 52.48 88.94 58.57 91.37 58.94 90.44 50.3 86.99 54.7 95.19"/><path class="cls-3" d="m500.9,150.38c7.49,0,7.49,20,14.98,20s7.49-20,14.98-20,7.49,20,14.98,20,7.49-20,14.98-20,7.49,20,14.98,20,7.49-20,14.98-20,7.49,20,14.98,20,7.49-20,14.98-20,7.49,20,14.98,20,7.49-20,14.99-20,7.49,20,14.98,20,7.49-20,14.98-20,7.49,20,14.98,20,7.49-20,14.99-20,7.49,20,14.98,20,7.49-20,14.99-20,7.49,20,14.99,20,7.5-20,14.99-20c6.49,0,7.36,14.99,12.34,19.02"/><polygon class="cls-6" points="776.97 166.94 777.34 166.01 783.42 168.43 780.32 162.66 781.2 162.19 785.6 170.38 776.97 166.94"/><path class="cls-3" d="m500.9,118.69c7.49,0,7.49,20,14.98,20s7.49-20,14.98-20,7.49,20,14.98,20,7.49-20,14.98-20,7.49,20,14.98,20,7.49-20,14.98-20,7.49,20,14.98,20,7.49-20,14.98-20,7.49,20,14.98,20,7.49-20,14.99-20,7.49,20,14.98,20,7.49-20,14.98-20,7.49,20,14.98,20,7.49-20,14.99-20,7.49,20,14.98,20,7.49-20,14.99-20,7.49,20,14.99,20,7.5-20,14.99-20c6.49,0,7.36,14.99,12.34,19.02"/><polygon class="cls-6" points="776.97 135.24 777.34 134.31 783.42 136.74 780.32 130.97 781.2 130.5 785.6 138.69 776.97 135.24"/><path class="cls-3" d="m500.9,86.99c7.49,0,7.49,20,14.98,20s7.49-20,14.98-20,7.49,20,14.98,20,7.49-20,14.98-20,7.49,20,14.98,20,7.49-20,14.98-20,7.49,20,14.98,20,7.49-20,14.98-20,7.49,20,14.98,20,7.49-20,14.99-20,7.49,20,14.98,20,7.49-20,14.98-20,7.49,20,14.98,20,7.49-20,14.99-20,7.49,20,14.98,20,7.49-20,14.99-20,7.49,20,14.99,20,7.5-20,14.99-20c6.49,0,7.36,14.99,12.34,19.02"/><polygon class="cls-6" points="776.97 103.55 777.34 102.62 783.42 105.05 780.32 99.28 781.2 98.81 785.6 106.99 776.97 103.55"/><text/><rect class="cls-4" x="65.32" width="670.32" height="769.56"/></svg>
